<svg width="389" height="363" viewBox="0 0 389 363" fill="none" xmlns="http://www.w3.org/2000/svg">
<g clip-path="url(#clip0_140_2)">
<path d="M-3.05176e-05 260.566C8.66583 270.837 18.0389 280.489 28.0507 289.452H708.949C718.961 280.489 728.334 270.837 737 260.566H-3.05176e-05Z" fill="#3F3D56"/>
<path d="M184.704 163.97V266.304H256.377V163.97C256.378 163.234 256.143 162.517 255.707 161.924C255.271 161.331 254.656 160.894 253.953 160.677C253.622 160.567 253.274 160.513 252.925 160.517H188.165C187.711 160.516 187.262 160.605 186.842 160.778C186.422 160.951 186.041 161.205 185.719 161.526C185.398 161.846 185.143 162.227 184.968 162.647C184.794 163.066 184.704 163.515 184.704 163.97ZM212.675 199.132C212.694 197.115 213.508 195.186 214.941 193.766C216.373 192.346 218.309 191.55 220.326 191.55C222.343 191.55 224.278 192.346 225.711 193.766C227.144 195.186 227.958 197.115 227.977 199.132V211.006C227.967 213.029 227.156 214.965 225.722 216.392C224.289 217.819 222.348 218.62 220.326 218.62C218.303 218.62 216.363 217.819 214.93 216.392C213.496 214.965 212.685 213.029 212.675 211.006V199.132Z" fill="#2F2E41"/>
<path d="M184.484 263.031V272.899C184.486 273.41 184.689 273.9 185.049 274.262C185.41 274.625 185.899 274.83 186.41 274.835H254.671C255.183 274.832 255.672 274.627 256.033 274.264C256.394 273.902 256.596 273.411 256.596 272.899V263.031H184.484Z" fill="#3F3D56"/>
<path d="M71.9523 9.79012V196.637C71.9542 199.019 72.9007 201.302 74.5839 202.985C76.2672 204.669 78.5496 205.616 80.9301 205.618H357.747C360.127 205.616 362.41 204.669 364.093 202.985C365.776 201.302 366.722 199.019 366.724 196.637V9.79012C366.719 7.4111 365.771 5.1313 364.088 3.45C362.405 1.76871 360.125 0.822968 357.747 0.819946H80.9301C78.5517 0.822978 76.2714 1.76871 74.5887 3.45C72.906 5.1313 71.958 7.4111 71.9523 9.79012Z" fill="#3F3D56"/>
<path d="M78.4463 12.115V194.332C78.4485 195.605 78.9547 196.824 79.854 197.724C80.7534 198.623 81.9725 199.13 83.2444 199.132H355.442C356.714 199.13 357.933 198.623 358.833 197.724C359.732 196.824 360.238 195.605 360.24 194.332V12.115C360.24 10.8412 359.735 9.61952 358.835 8.7179C357.936 7.81628 356.716 7.30838 355.442 7.30562H83.2444C81.971 7.30839 80.7507 7.81632 79.8511 8.71793C78.9516 9.61955 78.4464 10.8412 78.4463 12.115Z" fill="#F9A826"/>
<path d="M133.949 277.16C134.226 277.507 134.578 277.787 134.979 277.979C135.38 278.171 135.819 278.269 136.263 278.267H298.204C298.647 278.267 299.084 278.167 299.483 277.976C299.883 277.786 300.235 277.508 300.514 277.164C300.793 276.82 300.992 276.418 301.096 275.988C301.2 275.557 301.207 275.109 301.116 274.675L298.603 262.731C298.498 262.244 298.274 261.791 297.95 261.413C297.626 261.035 297.212 260.744 296.747 260.566C296.41 260.434 296.052 260.366 295.69 260.367H138.767C138.405 260.366 138.047 260.434 137.71 260.566C137.245 260.744 136.831 261.035 136.507 261.413C136.183 261.791 135.959 262.244 135.854 262.731L133.341 274.675C133.251 275.108 133.259 275.556 133.365 275.986C133.47 276.416 133.67 276.817 133.949 277.16Z" fill="#2F2E41"/>
<path d="M290.039 265.511H294.053C294.322 265.511 294.54 265.293 294.54 265.024V263.005C294.54 262.736 294.322 262.518 294.053 262.518H290.039C289.77 262.518 289.552 262.736 289.552 263.005V265.024C289.552 265.293 289.77 265.511 290.039 265.511Z" fill="#3F3D56"/>
<path d="M280.064 265.511H284.077C284.346 265.511 284.564 265.293 284.564 265.024V263.005C284.564 262.736 284.346 262.518 284.077 262.518H280.064C279.795 262.518 279.577 262.736 279.577 263.005V265.024C279.577 265.293 279.795 265.511 280.064 265.511Z" fill="#3F3D56"/>
<path d="M270.088 265.511H274.102C274.371 265.511 274.589 265.293 274.589 265.024V263.005C274.589 262.736 274.371 262.518 274.102 262.518H270.088C269.819 262.518 269.601 262.736 269.601 263.005V265.024C269.601 265.293 269.819 265.511 270.088 265.511Z" fill="#3F3D56"/>
<path d="M260.113 265.511H264.127C264.395 265.511 264.614 265.293 264.614 265.024V263.005C264.614 262.736 264.395 262.518 264.127 262.518H260.113C259.844 262.518 259.626 262.736 259.626 263.005V265.024C259.626 265.293 259.844 265.511 260.113 265.511Z" fill="#3F3D56"/>
<path d="M250.137 265.511H254.151C254.42 265.511 254.638 265.293 254.638 265.024V263.005C254.638 262.736 254.42 262.518 254.151 262.518H250.137C249.869 262.518 249.65 262.736 249.65 263.005V265.024C249.65 265.293 249.869 265.511 250.137 265.511Z" fill="#3F3D56"/>
<path d="M240.162 265.511H244.176C244.445 265.511 244.663 265.293 244.663 265.024V263.005C244.663 262.736 244.445 262.518 244.176 262.518H240.162C239.893 262.518 239.675 262.736 239.675 263.005V265.024C239.675 265.293 239.893 265.511 240.162 265.511Z" fill="#3F3D56"/>
<path d="M230.187 265.511H234.2C234.469 265.511 234.687 265.293 234.687 265.024V263.005C234.687 262.736 234.469 262.518 234.2 262.518H230.187C229.918 262.518 229.7 262.736 229.7 263.005V265.024C229.7 265.293 229.918 265.511 230.187 265.511Z" fill="#3F3D56"/>
<path d="M220.211 265.511H224.225C224.494 265.511 224.712 265.293 224.712 265.024V263.005C224.712 262.736 224.494 262.518 224.225 262.518H220.211C219.942 262.518 219.724 262.736 219.724 263.005V265.024C219.724 265.293 219.942 265.511 220.211 265.511Z" fill="#3F3D56"/>
<path d="M210.236 265.511H214.25C214.519 265.511 214.737 265.293 214.737 265.024V263.005C214.737 262.736 214.519 262.518 214.25 262.518H210.236C209.967 262.518 209.749 262.736 209.749 263.005V265.024C209.749 265.293 209.967 265.511 210.236 265.511Z" fill="#3F3D56"/>
<path d="M200.261 265.511H204.274C204.543 265.511 204.761 265.293 204.761 265.024V263.005C204.761 262.736 204.543 262.518 204.274 262.518H200.261C199.992 262.518 199.774 262.736 199.774 263.005V265.024C199.774 265.293 199.992 265.511 200.261 265.511Z" fill="#3F3D56"/>
<path d="M190.285 265.511H194.299C194.568 265.511 194.786 265.293 194.786 265.024V263.005C194.786 262.736 194.568 262.518 194.299 262.518H190.285C190.016 262.518 189.798 262.736 189.798 263.005V265.024C189.798 265.293 190.016 265.511 190.285 265.511Z" fill="#3F3D56"/>
<path d="M180.31 265.511H184.324C184.593 265.511 184.811 265.293 184.811 265.024V263.005C184.811 262.736 184.593 262.518 184.324 262.518H180.31C180.041 262.518 179.823 262.736 179.823 263.005V265.024C179.823 265.293 180.041 265.511 180.31 265.511Z" fill="#3F3D56"/>
<path d="M170.335 265.511H174.348C174.617 265.511 174.835 265.293 174.835 265.024V263.005C174.835 262.736 174.617 262.518 174.348 262.518H170.335C170.066 262.518 169.848 262.736 169.848 263.005V265.024C169.848 265.293 170.066 265.511 170.335 265.511Z" fill="#3F3D56"/>
<path d="M160.359 265.511H164.373C164.642 265.511 164.86 265.293 164.86 265.024V263.005C164.86 262.736 164.642 262.518 164.373 262.518H160.359C160.09 262.518 159.872 262.736 159.872 263.005V265.024C159.872 265.293 160.09 265.511 160.359 265.511Z" fill="#3F3D56"/>
<path d="M150.384 265.511H154.398C154.666 265.511 154.884 265.293 154.884 265.024V263.005C154.884 262.736 154.666 262.518 154.398 262.518H150.384C150.115 262.518 149.897 262.736 149.897 263.005V265.024C149.897 265.293 150.115 265.511 150.384 265.511Z" fill="#3F3D56"/>
<path d="M140.408 265.511H144.422C144.691 265.511 144.909 265.293 144.909 265.024V263.005C144.909 262.736 144.691 262.518 144.422 262.518H140.408C140.139 262.518 139.921 262.736 139.921 263.005V265.024C139.921 265.293 140.139 265.511 140.408 265.511Z" fill="#3F3D56"/>
<path d="M290.157 270.5H294.17C294.439 270.5 294.658 270.282 294.658 270.013V267.994C294.658 267.725 294.439 267.507 294.17 267.507H290.157C289.888 267.507 289.67 267.725 289.67 267.994V270.013C289.67 270.282 289.888 270.5 290.157 270.5Z" fill="#3F3D56"/>
<path d="M280.181 270.5H284.195C284.464 270.5 284.682 270.282 284.682 270.013V267.994C284.682 267.725 284.464 267.507 284.195 267.507H280.181C279.912 267.507 279.694 267.725 279.694 267.994V270.013C279.694 270.282 279.912 270.5 280.181 270.5Z" fill="#3F3D56"/>
<path d="M270.206 270.5H274.22C274.489 270.5 274.707 270.282 274.707 270.013V267.994C274.707 267.725 274.489 267.507 274.22 267.507H270.206C269.937 267.507 269.719 267.725 269.719 267.994V270.013C269.719 270.282 269.937 270.5 270.206 270.5Z" fill="#3F3D56"/>
<path d="M260.231 270.5H264.244C264.513 270.5 264.731 270.282 264.731 270.013V267.994C264.731 267.725 264.513 267.507 264.244 267.507H260.231C259.962 267.507 259.744 267.725 259.744 267.994V270.013C259.744 270.282 259.962 270.5 260.231 270.5Z" fill="#3F3D56"/>
<path d="M250.255 270.5H254.269C254.538 270.5 254.756 270.282 254.756 270.013V267.994C254.756 267.725 254.538 267.507 254.269 267.507H250.255C249.986 267.507 249.768 267.725 249.768 267.994V270.013C249.768 270.282 249.986 270.5 250.255 270.5Z" fill="#3F3D56"/>
<path d="M240.28 270.5H244.294C244.563 270.5 244.781 270.282 244.781 270.013V267.994C244.781 267.725 244.563 267.507 244.294 267.507H240.28C240.011 267.507 239.793 267.725 239.793 267.994V270.013C239.793 270.282 240.011 270.5 240.28 270.5Z" fill="#3F3D56"/>
<path d="M230.305 270.5H234.318C234.587 270.5 234.805 270.282 234.805 270.013V267.994C234.805 267.725 234.587 267.507 234.318 267.507H230.305C230.036 267.507 229.818 267.725 229.818 267.994V270.013C229.818 270.282 230.036 270.5 230.305 270.5Z" fill="#3F3D56"/>
<path d="M220.329 270.5H224.343C224.612 270.5 224.83 270.282 224.83 270.013V267.994C224.83 267.725 224.612 267.507 224.343 267.507H220.329C220.06 267.507 219.842 267.725 219.842 267.994V270.013C219.842 270.282 220.06 270.5 220.329 270.5Z" fill="#3F3D56"/>
<path d="M210.354 270.5H214.368C214.637 270.5 214.855 270.282 214.855 270.013V267.994C214.855 267.725 214.637 267.507 214.368 267.507H210.354C210.085 267.507 209.867 267.725 209.867 267.994V270.013C209.867 270.282 210.085 270.5 210.354 270.5Z" fill="#3F3D56"/>
<path d="M200.379 270.5H204.392C204.661 270.5 204.879 270.282 204.879 270.013V267.994C204.879 267.725 204.661 267.507 204.392 267.507H200.379C200.11 267.507 199.892 267.725 199.892 267.994V270.013C199.892 270.282 200.11 270.5 200.379 270.5Z" fill="#3F3D56"/>
<path d="M190.403 270.5H194.417C194.686 270.5 194.904 270.282 194.904 270.013V267.994C194.904 267.725 194.686 267.507 194.417 267.507H190.403C190.134 267.507 189.916 267.725 189.916 267.994V270.013C189.916 270.282 190.134 270.5 190.403 270.5Z" fill="#3F3D56"/>
<path d="M180.428 270.5H184.441C184.71 270.5 184.928 270.282 184.928 270.013V267.994C184.928 267.725 184.71 267.507 184.441 267.507H180.428C180.159 267.507 179.941 267.725 179.941 267.994V270.013C179.941 270.282 180.159 270.5 180.428 270.5Z" fill="#3F3D56"/>
<path d="M170.452 270.5H174.466C174.735 270.5 174.953 270.282 174.953 270.013V267.994C174.953 267.725 174.735 267.507 174.466 267.507H170.452C170.183 267.507 169.965 267.725 169.965 267.994V270.013C169.965 270.282 170.183 270.5 170.452 270.5Z" fill="#3F3D56"/>
<path d="M160.477 270.5H164.491C164.76 270.5 164.978 270.282 164.978 270.013V267.994C164.978 267.725 164.76 267.507 164.491 267.507H160.477C160.208 267.507 159.99 267.725 159.99 267.994V270.013C159.99 270.282 160.208 270.5 160.477 270.5Z" fill="#3F3D56"/>
<path d="M150.502 270.5H154.515C154.784 270.5 155.002 270.282 155.002 270.013V267.994C155.002 267.725 154.784 267.507 154.515 267.507H150.502C150.233 267.507 150.015 267.725 150.015 267.994V270.013C150.015 270.282 150.233 270.5 150.502 270.5Z" fill="#3F3D56"/>
<path d="M140.526 270.5H144.54C144.809 270.5 145.027 270.282 145.027 270.013V267.994C145.027 267.725 144.809 267.507 144.54 267.507H140.526C140.257 267.507 140.039 267.725 140.039 267.994V270.013C140.039 270.282 140.257 270.5 140.526 270.5Z" fill="#3F3D56"/>
<path d="M207.361 276.487H246.289C246.558 276.487 246.776 276.269 246.776 276V273.981C246.776 273.712 246.558 273.493 246.289 273.493H207.361C207.092 273.493 206.874 273.712 206.874 273.981V276C206.874 276.269 207.092 276.487 207.361 276.487Z" fill="#3F3D56"/>
<path d="M96.9225 32.4069H351.617C351.882 32.4011 352.134 32.2918 352.319 32.1024C352.504 31.9131 352.608 31.6587 352.608 31.3938C352.608 31.1289 352.504 30.8745 352.319 30.6851C352.134 30.4958 351.882 30.3865 351.617 30.3807H96.9225C96.6577 30.3865 96.4058 30.4958 96.2206 30.6851C96.0354 30.8745 95.9317 31.1289 95.9317 31.3938C95.9317 31.6587 96.0354 31.9131 96.2206 32.1024C96.4058 32.2918 96.6577 32.4011 96.9225 32.4069Z" fill="#3F3D56"/>
<path d="M334.28 25.2079C337.558 25.2079 340.215 22.4905 340.215 19.1383C340.215 15.7861 337.558 13.0687 334.28 13.0687C331.001 13.0687 328.344 15.7861 328.344 19.1383C328.344 22.4905 331.001 25.2079 334.28 25.2079Z" fill="#3F3D56"/>
<path d="M313.774 25.2079C317.052 25.2079 319.71 22.4905 319.71 19.1383C319.71 15.7861 317.052 13.0687 313.774 13.0687C310.496 13.0687 307.838 15.7861 307.838 19.1383C307.838 22.4905 310.496 25.2079 313.774 25.2079Z" fill="#3F3D56"/>
<path d="M293.269 25.2079C296.547 25.2079 299.205 22.4905 299.205 19.1383C299.205 15.7861 296.547 13.0687 293.269 13.0687C289.991 13.0687 287.333 15.7861 287.333 19.1383C287.333 22.4905 289.991 25.2079 293.269 25.2079Z" fill="#3F3D56"/>
<path d="M108.183 15.6771C108.182 15.8206 108.21 15.9628 108.264 16.0957C108.318 16.2285 108.398 16.3493 108.499 16.4512C108.6 16.5532 108.72 16.6342 108.852 16.6897C108.985 16.7452 109.127 16.7741 109.27 16.7747H123.834C124.122 16.768 124.396 16.6489 124.597 16.4429C124.798 16.2368 124.911 15.9602 124.911 15.6722C124.911 15.3841 124.798 15.1075 124.597 14.9014C124.396 14.6954 124.122 14.5763 123.834 14.5696H109.27C108.979 14.5731 108.702 14.6916 108.498 14.8991C108.294 15.1066 108.181 15.3863 108.183 15.6771Z" fill="#3F3D56"/>
<path d="M108.183 19.818C108.182 19.9615 108.21 20.1037 108.264 20.2365C108.318 20.3694 108.398 20.4902 108.499 20.5921C108.6 20.694 108.72 20.7751 108.852 20.8306C108.985 20.8861 109.127 20.915 109.27 20.9156H123.834C124.122 20.9092 124.396 20.7902 124.598 20.5841C124.8 20.3781 124.912 20.1013 124.912 19.813C124.912 19.5247 124.8 19.2479 124.598 19.0418C124.396 18.8358 124.122 18.7168 123.834 18.7104H109.27C108.979 18.7139 108.702 18.8324 108.498 19.0399C108.294 19.2474 108.181 19.5272 108.183 19.818Z" fill="#3F3D56"/>
<path d="M108.183 23.9489C108.181 24.2397 108.294 24.5194 108.498 24.7269C108.702 24.9344 108.979 25.0529 109.27 25.0564H123.834C124.122 25.0497 124.396 24.9306 124.597 24.7245C124.798 24.5185 124.911 24.2419 124.911 23.9538C124.911 23.6658 124.798 23.3892 124.597 23.1832C124.396 22.9771 124.122 22.858 123.834 22.8513H109.27C109.127 22.8519 108.985 22.8808 108.852 22.9363C108.72 22.9918 108.6 23.0728 108.499 23.1747C108.398 23.2767 108.318 23.3975 108.264 23.5303C108.21 23.6631 108.182 23.8054 108.183 23.9489Z" fill="#3F3D56"/>
<path d="M112.684 55.9515H107.451C105.864 55.9515 104.578 57.238 104.578 58.8251C104.578 60.4121 105.864 61.6987 107.451 61.6987H112.684C114.27 61.6987 115.557 60.4121 115.557 58.8251C115.557 57.238 114.27 55.9515 112.684 55.9515Z" fill="#E6E6E6"/>
<path d="M172.536 55.9515H167.303C165.716 55.9515 164.43 57.238 164.43 58.8251C164.43 60.4121 165.716 61.6987 167.303 61.6987H172.536C174.123 61.6987 175.409 60.4121 175.409 58.8251C175.409 57.238 174.123 55.9515 172.536 55.9515Z" fill="#E6E6E6"/>
<path d="M189.494 55.9515H184.261C182.674 55.9515 181.388 57.238 181.388 58.8251C181.388 60.4121 182.674 61.6987 184.261 61.6987H189.494C191.081 61.6987 192.367 60.4121 192.367 58.8251C192.367 57.238 191.081 55.9515 189.494 55.9515Z" fill="#E6E6E6"/>
<path d="M156.256 55.4724H123.731C122.144 55.4724 120.858 56.759 120.858 58.346C120.858 59.9331 122.144 61.2196 123.731 61.2196H156.256C157.843 61.2196 159.129 59.9331 159.129 58.346C159.129 56.759 157.843 55.4724 156.256 55.4724Z" fill="#E6E6E6"/>
<path d="M236.059 55.4724H203.534C201.947 55.4724 200.661 56.759 200.661 58.346C200.661 59.9331 201.947 61.2196 203.534 61.2196H236.059C237.646 61.2196 238.932 59.9331 238.932 58.346C238.932 56.759 237.646 55.4724 236.059 55.4724Z" fill="#E6E6E6"/>
<path d="M128.644 68.9228H123.411C121.825 68.9228 120.538 70.2094 120.538 71.7964C120.538 73.3835 121.825 74.67 123.411 74.67H128.644C130.231 74.67 131.517 73.3835 131.517 71.7964C131.517 70.2094 130.231 68.9228 128.644 68.9228Z" fill="#E6E6E6"/>
<path d="M188.497 68.9228H183.263C181.677 68.9228 180.391 70.2094 180.391 71.7964C180.391 73.3835 181.677 74.67 183.263 74.67H188.497C190.083 74.67 191.369 73.3835 191.369 71.7964C191.369 70.2094 190.083 68.9228 188.497 68.9228Z" fill="#E6E6E6"/>
<path d="M205.455 68.9228H200.221C198.635 68.9228 197.349 70.2094 197.349 71.7964C197.349 73.3835 198.635 74.67 200.221 74.67H205.455C207.041 74.67 208.328 73.3835 208.328 71.7964C208.328 70.2094 207.041 68.9228 205.455 68.9228Z" fill="#E6E6E6"/>
<path d="M172.217 68.4437H139.691C138.105 68.4437 136.818 69.7303 136.818 71.3174C136.818 72.9044 138.105 74.1909 139.691 74.1909H172.217C173.803 74.1909 175.089 72.9044 175.089 71.3174C175.089 69.7303 173.803 68.4437 172.217 68.4437Z" fill="#E6E6E6"/>
<path d="M252.02 68.4437H219.494C217.907 68.4437 216.621 69.7303 216.621 71.3174C216.621 72.9044 217.907 74.1909 219.494 74.1909H252.02C253.606 74.1909 254.892 72.9044 254.892 71.3174C254.892 69.7303 253.606 68.4437 252.02 68.4437Z" fill="#E6E6E6"/>
<path d="M144.605 81.8942H139.372C137.785 81.8942 136.499 83.1807 136.499 84.7678C136.499 86.3548 137.785 87.6414 139.372 87.6414H144.605C146.192 87.6414 147.478 86.3548 147.478 84.7678C147.478 83.1807 146.192 81.8942 144.605 81.8942Z" fill="#E6E6E6"/>
<path d="M204.457 81.8942H199.224C197.637 81.8942 196.351 83.1807 196.351 84.7678C196.351 86.3548 197.637 87.6414 199.224 87.6414H204.457C206.044 87.6414 207.33 86.3548 207.33 84.7678C207.33 83.1807 206.044 81.8942 204.457 81.8942Z" fill="#E6E6E6"/>
<path d="M221.415 81.8942H216.182C214.595 81.8942 213.309 83.1807 213.309 84.7678C213.309 86.3548 214.595 87.6414 216.182 87.6414H221.415C223.002 87.6414 224.288 86.3548 224.288 84.7678C224.288 83.1807 223.002 81.8942 221.415 81.8942Z" fill="#E6E6E6"/>
<path d="M188.177 81.4151H155.652C154.065 81.4151 152.779 82.7016 152.779 84.2887C152.779 85.8757 154.065 87.1623 155.652 87.1623H188.177C189.764 87.1623 191.05 85.8757 191.05 84.2887C191.05 82.7016 189.764 81.4151 188.177 81.4151Z" fill="#E6E6E6"/>
<path d="M267.98 81.4151H235.455C233.868 81.4151 232.582 82.7016 232.582 84.2887C232.582 85.8757 233.868 87.1623 235.455 87.1623H267.98C269.567 87.1623 270.853 85.8757 270.853 84.2887C270.853 82.7016 269.567 81.4151 267.98 81.4151Z" fill="#E6E6E6"/>
<path d="M160.566 94.8655H155.332C153.746 94.8655 152.459 96.1521 152.459 97.7391C152.459 99.3262 153.746 100.613 155.332 100.613H160.566C162.152 100.613 163.438 99.3262 163.438 97.7391C163.438 96.1521 162.152 94.8655 160.566 94.8655Z" fill="#E6E6E6"/>
<path d="M220.418 94.8655H215.185C213.598 94.8655 212.312 96.1521 212.312 97.7391C212.312 99.3262 213.598 100.613 215.185 100.613H220.418C222.004 100.613 223.291 99.3262 223.291 97.7391C223.291 96.1521 222.004 94.8655 220.418 94.8655Z" fill="#E6E6E6"/>
<path d="M237.376 94.8655H232.143C230.556 94.8655 229.27 96.1521 229.27 97.7391C229.27 99.3262 230.556 100.613 232.143 100.613H237.376C238.963 100.613 240.249 99.3262 240.249 97.7391C240.249 96.1521 238.963 94.8655 237.376 94.8655Z" fill="#E6E6E6"/>
<path d="M204.138 94.3864H171.612C170.026 94.3864 168.739 95.673 168.739 97.26C168.739 98.8471 170.026 100.134 171.612 100.134H204.138C205.724 100.134 207.011 98.8471 207.011 97.26C207.011 95.673 205.724 94.3864 204.138 94.3864Z" fill="#E6E6E6"/>
<path d="M172.536 146.445H167.303C165.716 146.445 164.43 147.732 164.43 149.319C164.43 150.906 165.716 152.192 167.303 152.192H172.536C174.123 152.192 175.409 150.906 175.409 149.319C175.409 147.732 174.123 146.445 172.536 146.445Z" fill="#E6E6E6"/>
<path d="M189.494 146.445H184.261C182.674 146.445 181.388 147.732 181.388 149.319C181.388 150.906 182.674 152.192 184.261 152.192H189.494C191.081 152.192 192.367 150.906 192.367 149.319C192.367 147.732 191.081 146.445 189.494 146.445Z" fill="#E6E6E6"/>
<path d="M236.059 146.924H203.534C201.947 146.924 200.661 148.211 200.661 149.798C200.661 151.385 201.947 152.671 203.534 152.671H236.059C237.646 152.671 238.932 151.385 238.932 149.798C238.932 148.211 237.646 146.924 236.059 146.924Z" fill="#E6E6E6"/>
<path d="M112.684 146.445H107.451C105.864 146.445 104.578 147.732 104.578 149.319C104.578 150.906 105.864 152.192 107.451 152.192H112.684C114.27 152.192 115.557 150.906 115.557 149.319C115.557 147.732 114.27 146.445 112.684 146.445Z" fill="#E6E6E6"/>
<path d="M156.256 146.924H123.731C122.144 146.924 120.858 148.211 120.858 149.798C120.858 151.385 122.144 152.671 123.731 152.671H156.256C157.843 152.671 159.129 151.385 159.129 149.798C159.129 148.211 157.843 146.924 156.256 146.924Z" fill="#E6E6E6"/>
<path d="M128.644 133.474H123.411C121.825 133.474 120.538 134.76 120.538 136.347C120.538 137.934 121.825 139.221 123.411 139.221H128.644C130.231 139.221 131.517 137.934 131.517 136.347C131.517 134.76 130.231 133.474 128.644 133.474Z" fill="#E6E6E6"/>
<path d="M188.497 133.474H183.263C181.677 133.474 180.391 134.76 180.391 136.347C180.391 137.934 181.677 139.221 183.263 139.221H188.497C190.083 139.221 191.369 137.934 191.369 136.347C191.369 134.76 190.083 133.474 188.497 133.474Z" fill="#E6E6E6"/>
<path d="M205.455 133.474H200.221C198.635 133.474 197.349 134.76 197.349 136.347C197.349 137.934 198.635 139.221 200.221 139.221H205.455C207.041 139.221 208.328 137.934 208.328 136.347C208.328 134.76 207.041 133.474 205.455 133.474Z" fill="#E6E6E6"/>
<path d="M172.217 133.953H139.691C138.105 133.953 136.818 135.239 136.818 136.826C136.818 138.414 138.105 139.7 139.691 139.7H172.217C173.803 139.7 175.089 138.414 175.089 136.826C175.089 135.239 173.803 133.953 172.217 133.953Z" fill="#E6E6E6"/>
<path d="M144.605 120.502H139.372C137.785 120.502 136.499 121.789 136.499 123.376C136.499 124.963 137.785 126.25 139.372 126.25H144.605C146.192 126.25 147.478 124.963 147.478 123.376C147.478 121.789 146.192 120.502 144.605 120.502Z" fill="#E6E6E6"/>
<path d="M204.457 120.502H199.224C197.637 120.502 196.351 121.789 196.351 123.376C196.351 124.963 197.637 126.25 199.224 126.25H204.457C206.044 126.25 207.33 124.963 207.33 123.376C207.33 121.789 206.044 120.502 204.457 120.502Z" fill="#E6E6E6"/>
<path d="M221.415 120.502H216.182C214.595 120.502 213.309 121.789 213.309 123.376C213.309 124.963 214.595 126.25 216.182 126.25H221.415C223.002 126.25 224.288 124.963 224.288 123.376C224.288 121.789 223.002 120.502 221.415 120.502Z" fill="#E6E6E6"/>
<path d="M188.177 120.982H155.652C154.065 120.982 152.779 122.268 152.779 123.855C152.779 125.442 154.065 126.729 155.652 126.729H188.177C189.764 126.729 191.05 125.442 191.05 123.855C191.05 122.268 189.764 120.982 188.177 120.982Z" fill="#E6E6E6"/>
<path d="M160.566 107.531H155.332C153.746 107.531 152.459 108.818 152.459 110.405C152.459 111.992 153.746 113.278 155.332 113.278H160.566C162.152 113.278 163.438 111.992 163.438 110.405C163.438 108.818 162.152 107.531 160.566 107.531Z" fill="#E6E6E6"/>
<path d="M220.418 107.531H215.185C213.598 107.531 212.312 108.818 212.312 110.405C212.312 111.992 213.598 113.278 215.185 113.278H220.418C222.004 113.278 223.291 111.992 223.291 110.405C223.291 108.818 222.004 107.531 220.418 107.531Z" fill="#E6E6E6"/>
<path d="M237.376 107.531H232.143C230.556 107.531 229.27 108.818 229.27 110.405C229.27 111.992 230.556 113.278 232.143 113.278H237.376C238.963 113.278 240.249 111.992 240.249 110.405C240.249 108.818 238.963 107.531 237.376 107.531Z" fill="#E6E6E6"/>
<path d="M204.138 108.01H171.612C170.026 108.01 168.739 109.297 168.739 110.884C168.739 112.471 170.026 113.757 171.612 113.757H204.138C205.724 113.757 207.011 112.471 207.011 110.884C207.011 109.297 205.724 108.01 204.138 108.01Z" fill="#E6E6E6"/>
<path d="M93.8682 333.834C94.4767 334.144 95.0951 334.453 95.7036 334.752C111.465 342.635 124.074 347.115 141.321 352.024C142.777 335.76 144.184 307.173 145.551 289.452C145.91 284.853 146.269 280.991 146.618 278.267C146.706 276.819 147.002 275.391 147.496 274.027L147.436 278.267L147.286 289.452L146.418 353.421C167.873 359.099 189.912 362.277 212.096 362.89C213.253 362.92 214.391 362.94 215.488 362.96C215.877 362.97 216.256 362.98 216.635 362.98C217.882 362.99 219.119 363 220.366 363C243.744 363.017 267.038 360.193 289.734 354.589C289.246 338.494 288.757 310.226 288.288 289.452C288.188 285.391 288.099 281.61 287.999 278.267C287.809 271.123 287.61 265.974 287.42 264.248C287.588 264.554 287.719 264.879 287.809 265.216C288.733 269.518 289.363 273.879 289.695 278.267C290.044 281.61 290.393 285.391 290.742 289.452C292.597 311.035 294.533 340.38 296.528 352.822C308.403 349.58 320.055 345.57 331.412 340.819C337.397 338.324 343.276 335.634 349.048 332.747C347.951 325.563 346.804 317.51 345.626 309.159C344.709 302.683 343.761 296.028 342.793 289.452C341.297 279.295 319.062 208.312 317.656 205.618C316.449 203.313 315.301 201.137 314.214 199.132C311.581 194.263 309.346 190.381 307.69 187.927C300.767 177.423 290.461 169.603 278.482 165.766L278.183 165.686L277.974 165.776L257.574 159.509L254.591 158.591L252.586 157.973L245.524 152.595L241.683 149.671L238.082 146.927L231.039 141.569L187.437 144.253L178.948 164.698L159.935 171.653L159.606 171.503L159.317 171.383L159.017 171.463C147.041 175.304 136.735 183.123 129.81 193.624C128.872 195.031 127.735 196.887 126.448 199.132C125.351 201.038 124.153 203.213 122.857 205.618C121.011 209.04 118.996 212.901 116.862 217.082C116.393 218 115.914 218.938 115.435 219.886C114.547 221.642 113.646 223.435 112.732 225.264C110.607 229.505 108.412 233.935 106.218 238.435C104.312 242.336 102.387 250.359 100.492 260.566C98.9258 269.047 97.3696 279.045 95.8633 289.452C93.8882 302.943 95.993 319.097 94.2074 331.509C94.0976 332.298 93.9779 333.066 93.8682 333.834Z" fill="#3F3D56"/>
<path opacity="0.2" d="M302.842 260.522L294.366 227.803L286.882 256.036L302.842 260.522Z" fill="black"/>
<path d="M77.2891 239.203C80.3216 280.991 77.1794 299.39 93.918 333.844C109.148 341.301 125.012 347.385 141.321 352.024C143.017 352.503 144.716 352.969 146.418 353.421C167.873 359.099 189.912 362.277 212.096 362.89C213.253 362.92 214.391 362.94 215.488 362.96C215.877 362.97 216.256 362.98 216.635 362.98C217.882 362.99 219.119 363 220.366 363C243.744 363.017 267.038 360.193 289.734 354.588C292.009 354.03 294.273 353.441 296.528 352.822C308.403 349.58 320.055 345.57 331.412 340.819C337.397 338.324 343.276 335.634 349.048 332.747C350.355 332.088 351.662 331.43 352.948 330.751C359.562 319.117 363.323 304.968 363.403 287.966C358.824 258.67 87.4041 213.939 77.2891 239.203Z" fill="#2F2E41"/>
<path opacity="0.2" d="M77.297 246.36C77.1421 243.773 76.9689 241.1 76.767 238.318C86.882 213.053 358.302 257.785 362.88 287.08C362.868 289.766 362.753 292.372 362.56 294.917C351.472 266.003 93.6193 223.489 77.297 246.36Z" fill="black"/>
<path d="M15.7903 260.143C16.2298 261.423 17.0635 262.531 18.1716 263.307C19.2798 264.083 20.6054 264.489 21.9582 264.464L48.3848 263.784C49.7474 263.758 51.0649 263.291 52.1403 262.453C53.2157 261.616 53.9911 260.452 54.3509 259.137L58.0905 219.139C59.4173 219.74 60.8617 220.037 62.318 220.007C64.8721 219.942 67.2955 218.864 69.0556 217.012C70.8157 215.159 71.7683 212.683 71.7042 210.129C71.6401 207.574 70.5644 205.149 68.7136 203.387C66.8629 201.626 64.3884 200.671 61.8343 200.733C61.2522 200.732 60.6716 200.792 60.1024 200.914C59.4833 200.244 58.7309 199.711 57.8935 199.349C57.0561 198.988 56.1523 198.806 55.2403 198.815L14.5902 199.865C14.253 199.878 13.9175 199.919 13.5875 199.99C12.696 200.156 11.8505 200.511 11.1078 201.032C10.3652 201.552 9.7426 202.226 9.28201 203.007C8.82142 203.788 8.53351 204.659 8.43766 205.561C8.3418 206.463 8.44022 207.375 8.7263 208.236L15.7903 260.143ZM58.8574 216.423L61.5185 206.891C61.8212 205.79 61.8282 204.628 61.5388 203.524C61.6679 203.523 61.7818 203.462 61.9109 203.462C63.7355 203.424 65.5006 204.112 66.8192 205.374C68.1378 206.636 68.9023 208.369 68.945 210.194C68.9878 212.019 68.3053 213.787 67.0472 215.109C65.7891 216.432 64.0581 217.201 62.2337 217.249C61.0541 217.286 59.8868 217 58.8574 216.423Z" fill="#2F2E41"/>
<path d="M13.5875 199.99C14.4536 204.943 24.1904 208.425 35.8983 207.82C46.6644 207.323 55.4674 203.542 57.0802 199.06C56.4833 198.884 55.8626 198.801 55.2404 198.815L14.5902 199.865C14.253 199.878 13.9175 199.919 13.5875 199.99Z" fill="#3F3D56"/>
<path d="M38.044 238.163C38.0975 238.15 38.1484 238.127 38.1945 238.097L43.9335 234.34C44.0029 234.294 44.0599 234.233 44.0994 234.16C44.1388 234.087 44.1596 234.005 44.1596 233.922C44.1596 233.84 44.139 233.758 44.0996 233.685C44.0601 233.612 44.0032 233.551 43.9339 233.505L37.9688 229.597C37.914 229.561 37.8527 229.536 37.7882 229.523C37.7238 229.511 37.6575 229.511 37.5932 229.525C37.5289 229.538 37.4679 229.564 37.4136 229.601C37.3593 229.637 37.3128 229.685 37.2768 229.74C37.2408 229.795 37.216 229.856 37.2039 229.921C37.1917 229.985 37.1924 230.051 37.2059 230.116C37.2194 230.18 37.2455 230.241 37.2826 230.295C37.3197 230.349 37.3672 230.395 37.4222 230.431L42.75 233.922L37.6486 237.262C37.5498 237.327 37.4771 237.424 37.4435 237.538C37.4099 237.651 37.4174 237.772 37.4649 237.88C37.5123 237.988 37.5965 238.076 37.7026 238.128C37.8086 238.18 37.9296 238.192 38.044 238.163Z" fill="#F9A826"/>
<path d="M28.9796 238.581C29.0759 238.557 29.1628 238.504 29.229 238.43C29.2952 238.356 29.3378 238.264 29.3513 238.166C29.3648 238.067 29.3486 237.967 29.3048 237.878C29.261 237.789 29.1915 237.714 29.1054 237.665L23.8154 234.631L28.9284 230.832C28.9809 230.793 29.0252 230.744 29.0588 230.688C29.0924 230.632 29.1146 230.57 29.1242 230.505C29.1337 230.44 29.1304 230.374 29.1145 230.311C29.0985 230.247 29.0702 230.188 29.0311 230.135C28.9921 230.082 28.9431 230.038 28.8869 230.004C28.8308 229.971 28.7685 229.949 28.7038 229.939C28.639 229.93 28.573 229.933 28.5095 229.949C28.4461 229.965 28.3864 229.993 28.3338 230.032L22.6093 234.285C22.5428 234.335 22.4896 234.4 22.4546 234.475C22.4195 234.55 22.4037 234.633 22.4086 234.715C22.4135 234.798 22.4389 234.878 22.4825 234.948C22.5261 235.019 22.5865 235.077 22.6584 235.118L28.609 238.531C28.7212 238.595 28.8541 238.613 28.9796 238.581Z" fill="#F9A826"/>
<path d="M37.4731 241.456C37.5214 241.444 37.5675 241.424 37.6098 241.398C37.6658 241.364 37.7146 241.32 37.7533 241.267C37.792 241.214 37.82 241.154 37.8355 241.09C37.851 241.026 37.8538 240.96 37.8438 240.896C37.8337 240.831 37.811 240.769 37.7769 240.713L29.6415 227.334C29.5723 227.221 29.4615 227.141 29.3332 227.11C29.2049 227.079 29.0696 227.1 28.9569 227.169C28.8442 227.238 28.7633 227.348 28.7319 227.477C28.7004 227.605 28.7211 227.74 28.7892 227.853L36.9246 241.232C36.9801 241.323 37.0633 241.394 37.1621 241.434C37.2608 241.475 37.3698 241.482 37.4731 241.456Z" fill="#F9A826"/>
<path d="M154.585 77.9495C156.703 93.0263 164.719 106.645 176.87 115.814C189.022 124.983 204.315 128.951 219.39 126.848C234.465 124.744 248.089 116.74 257.267 104.595C266.446 92.4493 270.429 77.156 268.341 62.0749L268.227 61.2599C265.798 46.3822 257.619 33.0559 245.456 24.1556C233.292 15.2553 218.118 11.4945 203.207 13.6844C188.296 15.8742 174.843 23.8393 165.75 35.8613C156.657 47.8833 152.653 62.9988 154.602 77.947L154.585 77.9495Z" fill="#FFB6B6"/>
<path d="M205.211 125.449C202.242 119.466 199.191 113.043 199.998 106.413C200.804 99.7824 207.281 93.426 213.668 95.3742C217.487 96.5392 220.383 100.298 224.372 100.478C229.861 100.725 232.986 94.432 234.677 89.2032L241.562 67.9078C254.842 78.3437 238.023 67.403 254.474 63.5828C260.928 62.0841 267.443 59.1822 271.214 53.7328C274.985 48.2833 274.934 39.85 269.723 35.7562C267.168 33.7489 263.774 32.9944 261.332 30.8515C259.817 29.5222 258.77 27.7403 258.346 25.7696C257.922 23.7988 258.144 21.7439 258.978 19.9089C259.813 18.074 261.216 16.5564 262.979 15.5809C264.743 14.6054 266.773 14.2237 268.771 14.4923L251.248 12.3613L256.435 2.90247C252.684 5.8802 247.452 6.29647 242.737 5.46352C238.022 4.63057 233.577 2.70463 228.962 1.42575C206.81 -4.71369 181.124 6.17612 170.13 26.3688C165.815 24.9435 161.169 24.8634 156.807 26.139C152.446 27.4146 148.574 29.9857 145.706 33.5117C141.037 39.4802 139.789 47.4284 139.633 55.0053C139.342 69.9449 142.647 84.7353 149.271 98.1285C151.336 102.291 153.776 106.374 157.285 109.419C160.794 112.463 200.45 129.329 205.026 128.534" fill="#2F2E41"/>
</g>
<defs>
<clipPath id="clip0_140_2">
<rect width="389" height="363" fill="white"/>
</clipPath>
</defs>
</svg>
