<svg width="237" height="390" viewBox="0 0 237 390" fill="none" xmlns="http://www.w3.org/2000/svg">
<g clip-path="url(#clip0_144_2)">
<path d="M55.16 232.273C56.4937 231.61 57.6656 230.663 58.5932 229.498C59.5209 228.334 60.1816 226.98 60.529 225.533C60.8764 224.086 60.902 222.58 60.6039 221.122C60.3058 219.664 59.6914 218.288 58.8038 217.093L82.5478 101.917L60.3906 101.625L43.9017 215.34C41.9908 216.963 40.742 219.23 40.392 221.711C40.0421 224.192 40.6153 226.715 42.0031 228.803C43.3908 230.89 45.4967 232.396 47.9216 233.036C50.3465 233.675 52.922 233.404 55.16 232.273Z" fill="#FFB8B8"/>
<path d="M163.085 226.292C164.174 225.276 165.026 224.033 165.582 222.653C166.137 221.272 166.383 219.786 166.302 218.3C166.221 216.814 165.815 215.364 165.112 214.051C164.409 212.739 163.427 211.597 162.234 210.705L152.036 93.5531L130.719 99.6012L147.452 213.281C146.085 215.382 145.537 217.911 145.912 220.388C146.286 222.866 147.558 225.12 149.485 226.724C151.412 228.328 153.86 229.169 156.367 229.09C158.874 229.01 161.264 228.015 163.085 226.292Z" fill="#FFB8B8"/>
<path d="M94.7092 377.389L83.0804 377.388L77.5488 332.576L94.7111 332.577L94.7092 377.389Z" fill="#FFB8B8"/>
<path d="M74.7746 374.069H97.201V388.176H60.6542C60.6542 384.435 62.1419 380.847 64.79 378.201C67.4381 375.555 71.0296 374.069 74.7746 374.069Z" fill="#2F2E41"/>
<path d="M146.877 377.389L135.248 377.388L129.717 332.576L146.879 332.577L146.877 377.389Z" fill="#FFB8B8"/>
<path d="M126.943 374.069H149.369V388.176H112.822C112.822 384.435 114.31 380.847 116.958 378.201C119.606 375.555 123.198 374.069 126.943 374.069Z" fill="#2F2E41"/>
<path d="M97.7223 57.215C110.588 57.215 121.019 46.7944 121.019 33.9399C121.019 21.0854 110.588 10.6648 97.7223 10.6648C84.856 10.6648 74.4259 21.0854 74.4259 33.9399C74.4259 46.7944 84.856 57.215 97.7223 57.215Z" fill="#FFB8B8"/>
<path d="M130.473 349.113C129.525 349.109 128.607 348.777 127.876 348.175C127.144 347.572 126.644 346.735 126.459 345.806L110.71 264.398C110.566 263.652 110.159 262.983 109.564 262.512C108.968 262.04 108.223 261.798 107.463 261.828C106.704 261.859 105.981 262.16 105.425 262.678C104.869 263.196 104.517 263.895 104.434 264.65L95.6147 343.947C95.5109 344.914 95.0626 345.813 94.3515 346.478C93.6404 347.143 92.7138 347.531 91.7404 347.571L78.5134 348.172C77.9757 348.2 77.4378 348.12 76.9317 347.937C76.4256 347.753 75.9616 347.47 75.5672 347.104C75.1697 346.742 74.8482 346.304 74.6215 345.817C74.3947 345.329 74.2674 344.802 74.2467 344.264L69.1749 221.773C69.1475 221.155 69.2622 220.538 69.5101 219.971C69.758 219.403 70.1327 218.9 70.6053 218.5L73.5381 216C74.2776 215.37 75.2174 215.024 76.189 215.024H144.746C145.829 215.025 146.867 215.455 147.633 216.22C148.399 216.985 148.83 218.023 148.831 219.105V344.411C148.833 345.464 148.427 346.476 147.699 347.236C146.97 347.996 145.976 348.445 144.924 348.489L130.647 349.11C130.589 349.112 130.531 349.113 130.473 349.113Z" fill="#2F2E41"/>
<path d="M95.3616 232.846C84.2776 232.847 74.5073 229.896 69.575 221.29C69.1626 220.581 68.9692 219.766 69.0192 218.947L75.2167 124.3C75.2669 123.535 75.0382 122.777 74.5727 122.167L57.1828 99.3875C56.8569 98.9606 56.6184 98.4736 56.4812 97.9544C56.3441 97.4352 56.3108 96.8941 56.3833 96.3621C56.4559 95.8301 56.6329 95.3176 56.9041 94.8541C57.1754 94.3905 57.5355 93.985 57.964 93.6609L84.0498 73.9162C84.5974 73.5003 84.996 72.9188 85.1862 72.2583L85.9461 69.6014C86.1814 68.7737 86.673 68.0418 87.3503 67.5106C88.0277 66.9793 88.8561 66.676 89.7166 66.6442L108.858 65.9082C109.496 65.8868 110.131 66.0138 110.712 66.2792C111.293 66.5447 111.804 66.9412 112.205 67.4377L114.242 69.9813C114.502 70.3061 114.823 70.5766 115.187 70.7775L147.198 88.4515C147.83 88.8013 148.358 89.312 148.729 89.9318C149.099 90.5515 149.299 91.2581 149.307 91.9799L149.308 92.0366L149.295 92.0906C141.833 123.176 142.252 162.467 150.616 215.744C150.638 216.556 150.417 217.357 149.981 218.043C149.544 218.729 148.913 219.269 148.168 219.595C141.239 222.593 116.021 232.846 95.3616 232.846Z" fill="#777779"/>
<path d="M75.8683 135.216H54.1871C53.6309 135.217 53.0805 135.104 52.5696 134.885C52.0587 134.665 51.5981 134.344 51.2161 133.94C50.8342 133.536 50.5389 133.058 50.3485 132.536C50.158 132.014 50.0765 131.459 50.1088 130.904C50.4314 125.386 51.0679 114.891 51.7051 106.614C52.6221 94.7041 64.3028 88.842 64.4204 88.7836L64.6489 88.672L72.5348 93.6732L79.8738 130.335C79.9921 130.928 79.9776 131.538 79.8311 132.124C79.6846 132.71 79.41 133.256 79.0269 133.723C78.6437 134.19 78.1617 134.566 77.6155 134.824C77.0693 135.082 76.4725 135.216 75.8683 135.216Z" fill="#777779"/>
<path d="M135.279 133.194C134.707 133.191 134.142 133.067 133.621 132.832C133.099 132.597 132.633 132.255 132.252 131.828C131.872 131.402 131.585 130.9 131.41 130.356C131.235 129.812 131.177 129.237 131.238 128.669L135.239 91.8905L142.97 86.2339L143.146 86.2534C143.228 86.2631 151.463 87.2905 155.153 96.5047C157.78 103.066 161.792 115.194 163.95 121.839C164.123 122.373 164.184 122.937 164.129 123.495C164.074 124.054 163.904 124.595 163.629 125.085C163.355 125.575 162.982 126.003 162.535 126.342C162.087 126.682 161.574 126.925 161.028 127.057L136.264 133.075C135.942 133.154 135.611 133.194 135.279 133.194Z" fill="#777779"/>
<path d="M98.2526 57.3772C103.235 49.5014 97.0147 27.8212 83.46 27.2555C80.3305 27.1249 79.1287 22.5753 78.0653 19.6322C77.5236 17.9259 77.3796 16.1184 77.6444 14.3479C77.9091 12.5775 78.5756 10.891 79.5928 9.41733C81.6627 6.48068 84.5128 4.18039 87.8216 2.77596C91.5436 1.06761 95.5898 0.179176 99.6857 0.170956C103.782 0.162736 107.831 1.03493 111.56 2.72833C115.289 4.42173 118.609 6.8967 121.296 9.98531C123.983 13.0739 125.974 16.7039 127.133 20.6289C128.292 24.5538 128.592 28.6819 128.013 32.733C127.434 36.7841 125.99 40.6635 123.778 44.1077C121.566 47.552 118.639 50.4806 115.194 52.6947C111.75 54.9089 107.869 56.3569 103.815 56.9403L98.2526 57.3772Z" fill="#2F2E41"/>
<path d="M236.051 390H0.821311C0.569751 390 0.328508 389.9 0.150628 389.722C-0.0272516 389.545 -0.127197 389.304 -0.127197 389.052C-0.127197 388.801 -0.0272516 388.56 0.150628 388.382C0.328508 388.205 0.569751 388.105 0.821311 388.105H236.051C236.303 388.105 236.544 388.205 236.722 388.382C236.9 388.56 237 388.801 237 389.052C237 389.304 236.9 389.545 236.722 389.722C236.544 389.9 236.303 390 236.051 390Z" fill="#3F3D56"/>
</g>
<defs>
<clipPath id="clip0_144_2">
<rect width="237" height="390" fill="white"/>
</clipPath>
</defs>
</svg>
