<svg width="15" height="15" viewBox="0 0 15 15" fill="none" xmlns="http://www.w3.org/2000/svg">
<path d="M15 7.5C15 11.6421 11.6421 15 7.5 15C3.35786 15 0 11.6421 0 7.5C0 3.35786 3.35786 0 7.5 0C11.6421 0 15 3.35786 15 7.5Z" fill="black"/>
<path d="M2.29883 11.0879C2.22461 11.0801 2.16797 11.0469 2.12891 10.9883C2.08984 10.9297 2.07422 10.8652 2.08203 10.7949C2.10156 10.6738 2.13867 10.5625 2.19336 10.4609C2.24805 10.3594 2.28711 10.2832 2.31055 10.2324C2.33789 10.1816 2.36523 10.125 2.39258 10.0625L2.61523 9.54688L5.02344 2.33398L7.61328 7.33789L10.127 2.33398L13.1328 11H9.98633L8.5332 6.52344L6.2832 11.2109L3.91602 6.99219L3.0957 9.55273C2.9668 9.83789 2.875 10.0801 2.82031 10.2793C2.76562 10.4785 2.7207 10.6328 2.68555 10.7422C2.60742 10.9883 2.47852 11.1035 2.29883 11.0879Z" fill="white"/>
</svg>
