<svg width="16" height="9" viewBox="0 0 16 9" fill="none" xmlns="http://www.w3.org/2000/svg">
<path d="M3.815 5.256H3.935L5.687 0.696L7.343 0.744L7.391 5.904L7.619 9H5.999L6.059 5.88L5.927 2.724L4.487 6.696L3.011 6.768L1.667 2.724L1.559 5.88L1.643 9H0.155L0.323 6.084L0.395 0.935999L2.303 0.636L3.815 5.256ZM15.6598 0.659999L15.4918 5.88L15.6358 9H13.9558L14.0998 6.084L14.0758 5.448H10.8478L10.8358 5.88L10.9798 9H9.29984L9.44384 6.084L9.29984 0.96L11.0038 0.659999L10.8838 4.176H14.0398L13.9558 0.96L15.6598 0.659999Z" fill="black"/>
</svg>
