<svg width="133" height="133" viewBox="0 0 133 133" fill="none" xmlns="http://www.w3.org/2000/svg">
<path d="M66.1926 132.385C102.75 132.385 132.385 102.75 132.385 66.1926C132.385 29.6354 102.75 0 66.1926 0C29.6354 0 0 29.6354 0 66.1926C0 102.75 29.6354 132.385 66.1926 132.385Z" fill="#E6E6E6"/>
<path d="M59.6819 28.2132C63.877 28.2132 67.2777 24.8124 67.2777 20.6174C67.2777 16.4223 63.877 13.0215 59.6819 13.0215C55.4868 13.0215 52.086 16.4223 52.086 20.6174C52.086 24.8124 55.4868 28.2132 59.6819 28.2132Z" fill="#CBCBCB"/>
<path d="M72.7034 104.172C76.8984 104.172 80.2992 100.771 80.2992 96.5761C80.2992 92.381 76.8984 88.9802 72.7034 88.9802C68.5083 88.9802 65.1075 92.381 65.1075 96.5761C65.1075 100.771 68.5083 104.172 72.7034 104.172Z" fill="#CBCBCB"/>
<path d="M102.002 59.6818C104.998 59.6818 107.427 57.2527 107.427 54.2562C107.427 51.2597 104.998 48.8306 102.002 48.8306C99.0052 48.8306 96.5761 51.2597 96.5761 54.2562C96.5761 57.2527 99.0052 59.6818 102.002 59.6818Z" fill="#CBCBCB"/>
<path d="M40.1496 88.9803C49.7384 88.9803 57.5116 81.2071 57.5116 71.6183C57.5116 62.0296 49.7384 54.2563 40.1496 54.2563C30.5609 54.2563 22.7876 62.0296 22.7876 71.6183C22.7876 81.2071 30.5609 88.9803 40.1496 88.9803Z" fill="#CBCBCB"/>
</svg>
