<svg width="16" height="16" viewBox="0 0 16 16" fill="none" xmlns="http://www.w3.org/2000/svg">
<path d="M16 8C16 12.4183 12.4183 16 8 16C3.58172 16 0 12.4183 0 8C0 3.58172 3.58172 0 8 0C12.4183 0 16 3.58172 16 8Z" fill="black"/>
<path d="M2.29883 12.0879C2.22461 12.0801 2.16797 12.0469 2.12891 11.9883C2.08984 11.9297 2.07422 11.8652 2.08203 11.7949C2.10156 11.6738 2.13867 11.5625 2.19336 11.4609C2.24805 11.3594 2.28711 11.2832 2.31055 11.2324C2.33789 11.1816 2.36523 11.125 2.39258 11.0625L2.61523 10.5469L5.02344 3.33398L7.61328 8.33789L10.127 3.33398L13.1328 12H9.98633L8.5332 7.52344L6.2832 12.2109L3.91602 7.99219L3.0957 10.5527C2.9668 10.8379 2.875 11.0801 2.82031 11.2793C2.76562 11.4785 2.7207 11.6328 2.68555 11.7422C2.60742 11.9883 2.47852 12.1035 2.29883 12.0879Z" fill="white"/>
</svg>
