<svg width="130" height="130" viewBox="0 0 130 130" fill="none" xmlns="http://www.w3.org/2000/svg">
<path d="M65 130C100.899 130 130 100.899 130 65C130 29.1015 100.899 0 65 0C29.1015 0 0 29.1015 0 65C0 100.899 29.1015 130 65 130Z" fill="#FD902B"/>
<path d="M58.6066 27.7049C62.7261 27.7049 66.0656 24.3654 66.0656 20.2459C66.0656 16.1264 62.7261 12.7869 58.6066 12.7869C54.4871 12.7869 51.1476 16.1264 51.1476 20.2459C51.1476 24.3654 54.4871 27.7049 58.6066 27.7049Z" fill="#D6682A"/>
<path d="M71.3935 102.295C75.513 102.295 78.8525 98.9557 78.8525 94.8362C78.8525 90.7167 75.513 87.3772 71.3935 87.3772C67.274 87.3772 63.9344 90.7167 63.9344 94.8362C63.9344 98.9557 67.274 102.295 71.3935 102.295Z" fill="#D6682A"/>
<path d="M100.164 58.6064C103.106 58.6064 105.492 56.221 105.492 53.2785C105.492 50.336 103.106 47.9507 100.164 47.9507C97.2215 47.9507 94.8361 50.336 94.8361 53.2785C94.8361 56.221 97.2215 58.6064 100.164 58.6064Z" fill="#D6682A"/>
<path d="M39.4262 87.3772C48.8422 87.3772 56.4754 79.744 56.4754 70.328C56.4754 60.912 48.8422 53.2788 39.4262 53.2788C30.0102 53.2788 22.3771 60.912 22.3771 70.328C22.3771 79.744 30.0102 87.3772 39.4262 87.3772Z" fill="#D6682A"/>
</svg>
